<?xml version="1.0" encoding="iso-8859-1"?>
<!-- Generator: Adobe Illustrator 19.0.0, SVG Export Plug-In . SVG Version: 6.00 Build 0)  -->
<svg version="1.1" id="Layer_1" xmlns="http://www.w3.org/2000/svg" xmlns:xlink="http://www.w3.org/1999/xlink" x="0px" y="0px"
	 viewBox="0 0 496.2 496.2" style="enable-background:new 0 0 496.2 496.2;" xml:space="preserve">
<path style="fill:#32BEA6;" d="M496.2,248.1C496.2,111.1,385.1,0,248.1,0S0,111.1,0,248.1s111.1,248.1,248.1,248.1
	S496.2,385.1,496.2,248.1z"/>
<path style="fill:#3A3A38;" d="M344.8,209.8c-2.3-9-6.9-17.7-13.2-25.3c-6-7.3-13-13.1-19.6-18.4l-1.6-1.3c-2.8-2.2-5.4-4.3-7.8-6.5
	c-2.6-2.3-5.4-5-8.2-8.1c-5-5.5-9.8-11.8-14.2-18.6c-2.1-3.3-4.1-6.7-6-10.2c-0.9-1.7-1.8-3.5-2.7-5.2c-1-2-1.7-3.7-2.3-5v-0.1
	c-0.1-0.2-0.2-0.4-0.2-0.5c-2-4.2-6.4-6.7-11-6.3c-1.4,0.1-2.7,0.5-3.9,1.1c-2.7,1.3-4.7,3.5-5.7,6.4c-0.3,0.8-0.5,1.7-0.6,2.6
	c-0.2,0.9-0.4,1.8-0.3,2.8L261.9,295c-14.7-8.7-36.1-10.1-56.8-2.1c-31.2,12.2-49,41.1-39.8,64.7s41.9,32.9,73.1,20.7
	c26.4-10.3,43.3-32.7,42.2-53.7l0,0l-14.2-176.5c4.5,5.7,9.1,11,14,15.8c3.5,3.4,6.9,6.4,10.2,9c2.9,2.3,5.9,4.4,8.7,6.4l1.8,1.3
	c6.2,4.4,12.7,9.2,18,15c5.2,5.5,8.9,11.7,11,18.5c2.1,6.5,2.9,14,2.5,22.2c-0.4,7.2-1.7,14.8-4,23.4c-2,7.3-4.5,14.9-7.9,23.2
	c-1.1,2.8,0.2,6,3,7.2c0.9,0.4,1.8,0.5,2.7,0.4c1.9-0.2,3.7-1.3,4.6-3.2c4-8.5,7.1-16.3,9.7-24c3-9.3,5-17.8,5.9-25.9
	C347.5,227.5,347,218.2,344.8,209.8z"/>
<g>
</g>
<g>
</g>
<g>
</g>
<g>
</g>
<g>
</g>
<g>
</g>
<g>
</g>
<g>
</g>
<g>
</g>
<g>
</g>
<g>
</g>
<g>
</g>
<g>
</g>
<g>
</g>
<g>
</g>
</svg>
